<svg width="48" height="48" viewBox="0 0 48 48" fill="none" xmlns="http://www.w3.org/2000/svg">
<rect width="48" height="48" rx="10" fill="#DFFF00"/>
<path fill-rule="evenodd" clip-rule="evenodd" d="M15.6711 15.0448C19.9736 15.0448 23.4616 18.5137 23.4616 22.7928C23.4616 27.0718 19.9736 30.5407 15.6711 30.5407C11.3685 30.5407 7.88062 27.0718 7.88062 22.7928C7.88062 18.5137 11.3685 15.0448 15.6711 15.0448Z" fill="#7034CB"/>
<path fill-rule="evenodd" clip-rule="evenodd" d="M18.0793 25.7265C18.5576 25.3279 18.9382 24.8387 19.2212 24.2558C19.504 23.673 19.6793 23.0868 19.7467 22.4937C19.8106 21.9009 19.7971 21.3079 19.7029 20.7082C19.6051 20.1087 19.4367 19.5793 19.1977 19.1171C18.9585 18.6581 18.6485 18.283 18.2713 17.9948C17.8907 17.7067 17.4833 17.5627 17.0418 17.5627C16.5164 17.5627 16.0516 17.7001 15.6508 17.9747C15.25 18.2494 14.9401 18.6111 14.7177 19.0601C14.4989 19.5055 14.3507 20.0215 14.2798 20.6043C14.2059 21.1872 14.2159 21.7769 14.3103 22.3698C14.4011 22.9661 14.5762 23.5592 14.8357 24.152C15.095 24.745 15.4284 25.2643 15.8394 25.7064C16.1863 26.0951 16.5704 26.4 16.988 26.621C17.4057 26.8421 17.8065 26.9794 18.1871 27.0297C18.5678 27.0765 18.9484 27.0832 19.3323 27.0465C19.7129 27.0129 20.0599 26.9391 20.3732 26.832C20.6864 26.7248 20.9626 26.6143 21.2019 26.5071C21.4409 26.4 21.6295 26.2994 21.7677 26.2089L21.9664 26.0816C21.7542 26.6243 21.4916 27.1033 21.1714 27.5222C20.8515 27.9409 20.5281 28.2759 20.1946 28.5238C19.8611 28.7717 19.5041 28.9761 19.1135 29.1334C18.7261 29.291 18.3724 29.3981 18.0491 29.4584C17.7256 29.5154 17.3991 29.5455 17.0723 29.5455H17.0418H17.0016C16.1863 29.5455 15.4185 29.4116 14.6942 29.1436C13.9699 28.8756 13.3232 28.4836 12.754 27.971C12.1848 27.455 11.7367 26.7918 11.4068 25.9778C11.0767 25.1638 10.9149 24.2492 10.9149 23.2341C10.9149 21.8673 11.1709 20.7049 11.6896 19.7501C12.205 18.7954 12.9124 18.0886 13.8151 17.6296C14.7177 17.174 15.7788 16.9363 17.0016 16.9228V16.9128C17.0083 16.9128 17.015 16.9162 17.0216 16.9195C17.0285 16.9228 17.0352 16.9228 17.0418 16.9228C17.0487 16.9228 17.052 16.9228 17.052 16.9228L17.0723 16.9128V16.9228C17.9649 16.9294 18.7834 17.0969 19.5243 17.4186C20.2655 17.7436 20.8582 18.1858 21.3096 18.7486C21.7609 19.3113 22.0674 19.9779 22.2325 20.7418C22.3976 21.5089 22.3505 22.3397 22.0943 23.2341C21.8722 24.0448 21.3736 24.7015 20.6056 25.204C19.8342 25.7031 18.9922 25.8773 18.0793 25.7265L18.0793 25.7265ZM40.499 28.0715C40.499 28.0916 40.499 28.1252 40.499 28.172C40.499 28.3093 40.499 28.4098 40.5023 28.4701C40.5057 28.5337 40.5226 28.6042 40.5494 28.6879C40.573 28.7684 40.6168 28.8252 40.6774 28.8588C40.7347 28.8923 40.8189 28.9089 40.9234 28.9089V29.5455H36.3727V28.9089C36.5109 28.9089 36.612 28.8687 36.676 28.7952C36.7366 28.718 36.7735 28.6409 36.7837 28.564C36.7937 28.4869 36.7971 28.3564 36.7971 28.1721C36.7971 28.1252 36.7971 28.0916 36.7971 28.0715V22.7819C36.7971 21.8607 36.5918 21.3985 36.1775 21.3985C35.9786 21.3985 35.7294 21.6095 35.4263 22.0282C35.1231 22.4469 34.8436 22.9728 34.5841 23.6094C34.3215 24.2426 34.1531 24.8354 34.0756 25.3849V30.1821C34.0756 30.3863 34.106 30.5573 34.17 30.6978C34.2306 30.8386 34.3079 30.9358 34.3955 30.9895C34.4832 31.0396 34.5741 31.0798 34.6616 31.1066C34.7492 31.1333 34.8267 31.1435 34.894 31.1368L34.9818 31.1267C34.6616 31.5655 34.2877 31.8804 33.8667 32.0715C33.4457 32.2657 33.0347 32.326 32.6339 32.2489C32.2331 32.1753 31.8592 32.0078 31.5156 31.7498C31.1687 31.4919 30.889 31.12 30.6802 30.641C30.4681 30.1586 30.3636 29.6226 30.3636 29.0362V22.7819C30.3636 21.8607 30.1617 21.3985 29.754 21.3985C29.5554 21.3985 29.3094 21.5993 29.0164 22.0015C28.7233 22.4067 28.4472 22.9127 28.1877 23.5256C27.9284 24.1353 27.7532 24.7183 27.6589 25.2676V28.0716C27.6589 28.0917 27.6589 28.1252 27.6589 28.1721C27.6589 28.3093 27.6623 28.4099 27.6656 28.4702C27.6689 28.5338 27.6825 28.6043 27.7094 28.688C27.7362 28.7685 27.7802 28.8253 27.8373 28.8588C27.898 28.8924 27.9789 28.909 28.0833 28.909V29.5456H23.536V28.909C23.6742 28.909 23.7752 28.8688 23.8359 28.7952C23.8999 28.7181 23.9334 28.641 23.9437 28.5641C23.9537 28.487 23.9605 28.3564 23.9605 28.1721C23.9605 28.1253 23.9605 28.0917 23.9605 28.0716V21.3884C23.9605 21.3716 23.9605 21.3382 23.9605 21.2912C23.9605 21.1137 23.9537 20.9831 23.9437 20.8994C23.9334 20.8157 23.8999 20.7352 23.8359 20.6581C23.7752 20.5843 23.6742 20.5441 23.536 20.5441V19.9177H27.659V23.1271C27.8509 22.6949 28.0664 22.2996 28.3024 21.9379C28.5381 21.5793 28.8176 21.241 29.1342 20.9295C29.4543 20.6146 29.8213 20.3667 30.2357 20.1891C30.65 20.0083 31.0946 19.9177 31.5696 19.9177C32.26 19.9177 32.8495 20.159 33.338 20.6447C33.8297 21.1272 34.0756 21.7134 34.0756 22.4001V23.1673C34.2575 22.7351 34.4697 22.3365 34.7123 21.968C34.9514 21.6027 35.2309 21.2611 35.551 20.943C35.8676 20.6246 36.2381 20.3767 36.6591 20.1926C37.0802 20.0083 37.528 19.9178 38.003 19.9178C38.6935 19.9178 39.2832 20.159 39.7681 20.6447C40.2565 21.1272 40.4991 21.7135 40.4991 22.4002V28.0717L40.499 28.0715Z" fill="#7034CB"/>
</svg>
