<svg width="90" height="46" viewBox="0 0 90 46" fill="none" xmlns="http://www.w3.org/2000/svg">
<path d="M67.7108 28.917H67.402C67.408 28.8772 67.4144 28.8189 67.4204 28.7481C67.4267 28.6745 67.4297 28.5364 67.4297 28.3276C67.4297 28.1216 67.4204 27.9222 67.402 27.7287C67.3834 27.5383 67.3464 27.3266 67.2847 27.0901C67.2258 26.8568 67.1456 26.6541 67.0439 26.4792C66.9451 26.3073 66.8092 26.1566 66.6333 26.0307C66.4604 25.9048 66.2535 25.8342 66.0187 25.822C65.6207 25.8405 65.2593 26.0678 64.9322 26.5037C64.6078 26.9367 64.3917 27.474 64.2867 28.1094C64.1818 28.7451 64.2158 29.4239 64.3917 30.1513C64.5308 30.6489 64.7253 31.0573 64.9752 31.3766C65.2254 31.699 65.5064 31.9107 65.8212 32.0121C66.133 32.1134 66.4231 32.184 66.6889 32.224C66.9544 32.2639 67.2445 32.2393 67.5593 32.1565C67.8774 32.0736 68.0812 32.0153 68.1768 31.9846C68.2694 31.9538 68.3776 31.914 68.4979 31.8587H68.5072C68.2664 32.5189 67.8527 33.0562 67.2661 33.4736C66.6826 33.8913 66.0807 34.1001 65.4662 34.1001C64.327 34.1001 63.3698 33.6979 62.592 32.8935C61.8139 32.0889 61.4249 31.008 61.4249 29.6448C61.4249 29.0214 61.5238 28.4473 61.7213 27.9222C61.9219 27.4002 62.1813 26.9672 62.4994 26.6326C62.8204 26.298 63.1785 26.0155 63.5766 25.7882C63.975 25.558 64.3703 25.4013 64.7623 25.3155C65.1544 25.2294 65.5278 25.1956 65.8829 25.2201C66.2442 25.2264 66.5963 25.2817 66.9357 25.3861C67.2785 25.4904 67.5626 25.6163 67.7911 25.7637C68.0196 25.9111 68.2231 26.0615 68.4023 26.2089C68.5814 26.3593 68.711 26.4852 68.7943 26.5866L68.9209 26.74L67.7108 28.917V28.917Z" fill="#7034CB"/>
<path d="M60.3197 33.4798V34.0631H56.1519V33.4798C56.2784 33.4798 56.371 33.443 56.4264 33.3754C56.4853 33.3048 56.5159 33.234 56.5252 33.1634C56.5346 33.0928 56.5406 32.9732 56.5406 32.8043C56.5406 32.7613 56.5406 32.7305 56.5406 32.7122V26.5865C56.5406 26.5712 56.5406 26.5405 56.5406 26.4974C56.5406 26.3347 56.5346 26.2149 56.5252 26.1383C56.5159 26.0614 56.4853 25.9879 56.4264 25.9171C56.371 25.8495 56.2784 25.8127 56.1519 25.8127V25.2386H59.9307V32.7122C59.9307 32.7305 59.9307 32.7613 59.9307 32.8043C59.9307 32.9302 59.9337 33.0223 59.9367 33.0776C59.94 33.1359 59.9523 33.2002 59.977 33.2771C60.0016 33.3509 60.0416 33.4029 60.0943 33.4337C60.1499 33.4645 60.2238 33.4798 60.3197 33.4798Z" fill="#7034CB"/>
<path d="M54.8582 34.6465C54.8582 34.834 54.8859 34.9904 54.9448 35.1195C55.0001 35.2484 55.0714 35.3375 55.1516 35.3865C55.2319 35.4326 55.3152 35.4694 55.3954 35.4939C55.4757 35.5187 55.5436 35.5277 55.5993 35.5216L55.6886 35.5124C55.3954 35.9146 55.0527 36.2031 54.6667 36.3783C54.2809 36.5563 53.9072 36.6115 53.5398 36.541C53.1755 36.4734 52.836 36.32 52.5179 36.0835C52.2031 35.847 51.9467 35.5061 51.7555 35.0672C51.561 34.625 51.4651 34.1337 51.4651 33.5964V27.8546C51.4651 27.0165 51.2769 26.5957 50.8941 26.5957C50.715 26.5957 50.4865 26.7859 50.2086 27.1638C49.9308 27.5415 49.6744 28.0172 49.4399 28.5946C49.2051 29.1687 49.0478 29.7093 48.9676 30.2128V32.7122C48.9676 32.7304 48.9676 32.7612 48.9676 32.8043C48.9676 32.9301 48.9706 33.0222 48.9736 33.0776C48.9769 33.1359 48.9892 33.2002 49.0138 33.277C49.0385 33.3509 49.0785 33.4029 49.1311 33.4337C49.1868 33.4645 49.2607 33.4797 49.3566 33.4797V34.0631H45.1887V33.4797C45.3153 33.4797 45.4079 33.4429 45.4632 33.3753C45.5221 33.3048 45.5528 33.2339 45.5621 33.1634C45.5714 33.0928 45.5775 32.9732 45.5775 32.8043C45.5775 32.7612 45.5775 32.7304 45.5775 32.7122V24.6459C45.5775 24.6274 45.5775 24.5969 45.5775 24.5538C45.5775 24.3941 45.5715 24.2743 45.5621 24.1944C45.5528 24.1178 45.5221 24.044 45.4632 23.9734C45.4079 23.9058 45.3153 23.8721 45.1887 23.8721V23.295H48.9675V28.2077C49.1374 27.8115 49.3319 27.4461 49.5511 27.1085C49.7733 26.7736 50.0294 26.4606 50.3198 26.1687C50.613 25.8772 50.9527 25.6499 51.3385 25.4873C51.7245 25.3213 52.1352 25.2385 52.5672 25.2385C53.2034 25.2385 53.7406 25.4595 54.1883 25.9047C54.6327 26.3469 54.8582 26.8843 54.8582 27.5137V34.6465L54.8582 34.6465Z" fill="#7034CB"/>
<path d="M41.1102 30.1513C41.2678 29.611 41.3357 29.0829 41.314 28.5701C41.2924 28.0573 41.2121 27.5998 41.0733 27.2007C40.9343 26.7985 40.7305 26.4729 40.465 26.2274C40.1965 25.9816 39.8938 25.8557 39.5634 25.8495C39.1467 25.8925 38.7546 26.1045 38.3873 26.4882C38.0199 26.8721 37.7297 27.3481 37.5136 27.9159C37.3004 28.4811 37.1924 29.0551 37.1924 29.6385V31.9845C37.387 32.0919 37.6031 32.184 37.8407 32.2548C38.0785 32.3284 38.3626 32.3652 38.6897 32.3684C39.0201 32.3715 39.3288 32.3131 39.619 32.1962C39.9061 32.0796 40.1902 31.8464 40.465 31.4993C40.7368 31.1524 40.9526 30.701 41.1102 30.1514L41.1102 30.1513ZM39.6623 25.2108C40.2302 25.174 40.7738 25.2446 41.2954 25.4198C41.8173 25.5918 42.2866 25.8588 42.7033 26.2182C43.117 26.5773 43.4504 27.0563 43.7006 27.6489C43.9507 28.2415 44.0773 28.9077 44.0773 29.6448C44.0773 31.008 43.6882 32.0889 42.9102 32.8935C42.1321 33.6978 41.1752 34.1 40.0327 34.1C39.4987 34.1 38.9645 33.9343 38.4335 33.6087C37.9026 33.2834 37.4889 32.8472 37.1924 32.3099V34.622C37.1924 34.6373 37.1924 34.6681 37.1924 34.7111C37.1924 34.8738 37.1985 34.9937 37.2078 35.0703C37.2171 35.1471 37.2511 35.2207 37.3067 35.2915C37.3653 35.3591 37.4549 35.3959 37.5815 35.3959V35.97H33.4136V35.3959C33.5401 35.3959 33.6328 35.3591 33.6881 35.2915C33.747 35.2207 33.7777 35.1501 33.787 35.0765C33.7963 34.9997 33.8024 34.8801 33.8024 34.7111C33.8024 34.6681 33.8024 34.6373 33.8024 34.622V26.562C33.8024 26.5434 33.8024 26.513 33.8024 26.4699C33.8024 26.3103 33.7964 26.1904 33.787 26.1106C33.7777 26.034 33.747 25.9602 33.6881 25.8895C33.6328 25.822 33.5401 25.7882 33.4136 25.7882V25.2018H37.1924V27.1268C37.4516 26.5803 37.7883 26.132 38.202 25.7822C38.6157 25.432 39.1034 25.2386 39.6622 25.2018V25.2108L39.6623 25.2108Z" fill="#7034CB"/>
<path d="M27.8409 27.9897H28.8259V27.0748C28.8259 26.2396 28.6437 25.8189 28.2763 25.8127C28.0048 25.8189 27.77 25.8925 27.5694 26.0339C27.3719 26.175 27.2204 26.3655 27.1185 26.6017C27.0136 26.8382 26.9396 27.0715 26.8903 27.302C26.844 27.5352 26.813 27.781 26.8007 28.045C27.1341 28.0083 27.4798 27.9897 27.8409 27.9897V27.9897ZM32.2189 32.7122C32.2189 32.7305 32.2189 32.7613 32.2189 32.8043C32.2189 32.9302 32.2189 33.0223 32.222 33.0776C32.2249 33.1359 32.2406 33.2002 32.2652 33.2771C32.2869 33.351 32.3269 33.403 32.3825 33.4338C32.4351 33.4645 32.5121 33.4798 32.608 33.4798V34.0632H28.4368V34.0539H27.841V34.0632C26.9736 34.0632 26.2049 33.9618 25.538 33.7561C24.8742 33.5534 24.3309 33.2188 23.9172 32.755C23.5002 32.2885 23.2904 31.7111 23.2904 31.0234H26.6835C26.6835 31.3272 26.6925 31.5945 26.7142 31.8217C26.7358 32.052 26.7821 32.3038 26.8501 32.583C26.921 32.8625 27.0383 33.0805 27.2081 33.2339C27.378 33.3906 27.5879 33.4704 27.841 33.4704H28.5018C28.6037 33.4582 28.681 33.4184 28.7333 33.3475C28.7826 33.28 28.8106 33.2094 28.8166 33.1358C28.8229 33.0653 28.8259 32.9516 28.8259 32.795C28.8259 32.7582 28.8259 32.7304 28.8259 32.7122V28.576H27.841C27.5878 28.576 27.378 28.6529 27.2081 28.8095C27.0382 28.966 26.921 29.1842 26.85 29.4605C26.7821 29.7398 26.7358 29.9948 26.7141 30.2218C26.6925 30.449 26.6834 30.7163 26.6834 31.0234H23.2903C23.2903 30.2495 23.5405 29.6261 24.0374 29.1504C24.5344 28.6774 25.2169 28.3488 26.0875 28.1616L25.3001 26.7583C25.3311 26.7153 25.3711 26.6632 25.4267 26.5957C25.4793 26.5311 25.6026 26.4115 25.7971 26.2425C25.9887 26.0706 26.1924 25.9202 26.4023 25.788C26.6155 25.6559 26.887 25.5333 27.2267 25.4197C27.5631 25.303 27.9058 25.2444 28.2579 25.2385H29.9313C30.5641 25.2385 31.1044 25.4595 31.5488 25.9047C31.9964 26.3469 32.2189 26.8842 32.2189 27.5136V32.7122V32.7122Z" fill="#7034CB"/>
<path d="M20.7309 25.2386C21.0983 25.2386 21.4564 25.2906 21.8054 25.3952C22.1511 25.4996 22.4383 25.6284 22.6637 25.7788C22.8889 25.9292 23.0897 26.0767 23.2656 26.224C23.4385 26.3715 23.565 26.4944 23.6454 26.5957L23.7719 26.7584L22.5588 28.9354H22.253C22.256 28.8924 22.2624 28.8341 22.2654 28.7603C22.2684 28.6837 22.2654 28.5423 22.2591 28.3276C22.2561 28.1156 22.2408 27.9129 22.2161 27.7227C22.1915 27.5292 22.1418 27.3142 22.0709 27.0777C21.9999 26.8412 21.9073 26.6388 21.7991 26.4698C21.6911 26.3039 21.5399 26.1598 21.3484 26.0429C21.1539 25.9263 20.9347 25.8679 20.6876 25.8679C20.2956 25.8924 19.9469 26.0767 19.6411 26.4268C19.3386 26.7736 19.1041 27.2006 18.9466 27.7041C18.786 28.2076 18.6901 28.748 18.6595 29.3313V32.7121C18.6595 32.7304 18.6595 32.7611 18.6595 32.8042C18.6595 32.9301 18.6625 33.0222 18.6655 33.0775C18.6688 33.1358 18.6811 33.2001 18.7057 33.277C18.7304 33.3508 18.7704 33.4028 18.823 33.4336C18.8787 33.4644 18.9526 33.4796 19.0485 33.4796V34.063H14.8806V33.4796C15.0072 33.4796 15.0998 33.4429 15.1551 33.3753C15.214 33.3047 15.2447 33.2339 15.254 33.1633C15.2633 33.0927 15.2693 32.9731 15.2693 32.8042C15.2693 32.7611 15.2693 32.7304 15.2693 32.7121V26.5864C15.2693 26.5711 15.2693 26.5403 15.2693 26.4973C15.2693 26.3346 15.2633 26.2147 15.254 26.1382C15.2447 26.0613 15.214 25.9878 15.1551 25.917C15.0998 25.8494 15.0072 25.8126 14.8806 25.8126V25.2385H18.6594V26.749C19.1255 25.8066 19.8139 25.3031 20.7309 25.2385V25.2386Z" fill="#7034CB"/>
<path d="M13.6672 32.6046C13.6672 32.6291 13.6672 32.6752 13.6672 32.7398C13.6672 32.8074 13.6672 32.8504 13.6672 32.872C13.6672 32.8935 13.6702 32.9302 13.6732 32.9886C13.6765 33.0439 13.6795 33.0837 13.6855 33.0992C13.6918 33.1175 13.7012 33.1482 13.7135 33.185C13.7258 33.2251 13.7411 33.2526 13.7598 33.2678C13.7751 33.2834 13.7998 33.2986 13.8277 33.3202C13.8523 33.3417 13.8863 33.357 13.9203 33.36C13.9573 33.3662 14.0006 33.3693 14.0469 33.3693V33.9559H9.87903V33.3693C10.0056 33.3693 10.0982 33.3355 10.1538 33.2679C10.2125 33.1973 10.2431 33.1268 10.2525 33.0562C10.2618 32.9823 10.2681 32.8627 10.2681 32.6968C10.2681 32.654 10.2681 32.6232 10.2681 32.6047V29.6723C10.2681 29.6541 10.2681 29.6263 10.2681 29.5835C10.2681 29.4573 10.2648 29.3653 10.2618 29.3102C10.2588 29.2517 10.2465 29.1873 10.2218 29.1105C10.1969 29.0369 10.1599 28.9846 10.1043 28.9539C10.0489 28.9234 9.9747 28.9078 9.87907 28.9078V28.3245H13.6579C13.6579 29.1689 13.6609 29.9212 13.6642 30.5783C13.6672 31.2353 13.6672 31.9107 13.6672 32.6047V32.6046ZM7.87524 25.819C7.70865 26.5896 7.62508 27.3909 7.62508 28.2263C7.62508 29.0584 7.70865 29.8598 7.87524 30.6273C8.0421 31.3949 8.30124 32.0428 8.65331 32.5742C9.00538 33.1052 9.41275 33.3693 9.87903 33.3693V33.9559C8.14699 33.9559 6.77308 33.4676 5.75747 32.4881C4.74163 31.5115 4.23532 30.0901 4.23532 28.2264C4.23532 26.3593 4.74163 24.9379 5.75747 23.9551C6.77308 22.9758 8.14699 22.4846 9.87903 22.4846C10.2648 22.4846 10.6601 22.5184 11.0645 22.5797C11.4658 22.6443 11.8179 22.7208 12.111 22.8099C12.4075 22.899 12.6793 22.9911 12.9231 23.0832C13.1669 23.1783 13.3521 23.2551 13.4787 23.3227L13.6579 23.4118L12.2469 26.1752H11.9412C11.9351 26.1322 11.9289 26.0738 11.9228 26.0003C11.9165 25.9234 11.8919 25.779 11.8486 25.561C11.8086 25.346 11.7593 25.1403 11.7066 24.9468C11.651 24.7504 11.5677 24.5354 11.4565 24.2992C11.3453 24.0627 11.222 23.857 11.0861 23.6821C10.9502 23.5069 10.7773 23.3628 10.5642 23.2458C10.3543 23.1292 10.1258 23.0709 9.87898 23.0709C9.41271 23.0709 9.00528 23.3349 8.65326 23.8663C8.30119 24.3973 8.04205 25.0483 7.87519 25.8191L7.87524 25.819Z" fill="#7034CB"/>
<path fill-rule="evenodd" clip-rule="evenodd" d="M10.8742 0C16.8799 0 21.7484 4.84202 21.7484 10.8149C21.7484 16.7877 16.8799 21.6297 10.8742 21.6297C4.86857 21.6297 0 16.7877 0 10.8149C0 4.84202 4.86857 0 10.8742 0Z" fill="#7034CB"/>
<path d="M58.0435 24.0527C59.0873 24.0527 59.9334 23.2112 59.9334 22.1731C59.9334 21.135 59.0873 20.2935 58.0435 20.2935C56.9998 20.2935 56.1536 21.135 56.1536 22.1731C56.1536 23.2112 56.9998 24.0527 58.0435 24.0527Z" fill="#7034CB"/>
<path fill-rule="evenodd" clip-rule="evenodd" d="M74.3674 34.1725L68.1986 43.2415C67.6153 44.0777 66.9337 45.0821 66.3129 45.9908L61.5303 46L72.1133 30.7857C72.2765 31.2659 73.986 33.5414 74.3674 34.1725Z" fill="#7034CB"/>
<path fill-rule="evenodd" clip-rule="evenodd" d="M74.3552 24.6924C74.1009 25.163 73.5546 25.8831 73.1932 26.4075L72.1805 27.871C72.0222 28.0314 72.1293 27.9541 71.9441 28.0549C71.398 27.4737 67.0484 21.0282 66.9538 20.7823L71.7535 20.7816C72.2102 21.4867 72.6336 22.0778 73.0602 22.7284C73.3535 23.1757 74.1828 24.1787 74.3552 24.6925L74.3552 24.6924Z" fill="#7034CB"/>
<path fill-rule="evenodd" clip-rule="evenodd" d="M77.8967 29.6386L83.8181 38.4439L79.0567 38.4529L73.0444 29.5438L87.6224 8.31946C87.939 8.45642 89.221 10.4773 89.5127 10.9007C90.2169 11.923 90.2969 11.4643 88.8105 13.6393L77.8967 29.6386H77.8967Z" fill="#7034CB"/>
<path fill-rule="evenodd" clip-rule="evenodd" d="M14.2357 14.9099C14.9033 14.3535 15.4346 13.6707 15.8296 12.8571C16.2244 12.0435 16.4691 11.2252 16.5631 10.3975C16.6524 9.56998 16.6335 8.74221 16.502 7.90513C16.3655 7.06838 16.1304 6.32942 15.7968 5.68422C15.4629 5.04361 15.0302 4.51996 14.5037 4.11777C13.9725 3.71562 13.4037 3.51453 12.7875 3.51453C12.0541 3.51453 11.4054 3.70636 10.8459 4.08971C10.2865 4.4731 9.85389 4.97795 9.54349 5.60467C9.23802 6.22644 9.03117 6.9466 8.93228 7.7602C8.82901 8.5738 8.84298 9.39694 8.97474 10.2245C9.10161 11.0569 9.34599 11.8847 9.70816 12.7121C10.0701 13.5399 10.5355 14.2647 11.1092 14.8818C11.5933 15.4243 12.1295 15.8499 12.7125 16.1584C13.2955 16.4671 13.8549 16.6587 14.3861 16.7289C14.9176 16.7943 15.4488 16.8036 15.9847 16.7524C16.5159 16.7055 17.0003 16.6025 17.4376 16.4529C17.8748 16.3033 18.2603 16.1491 18.5943 15.9995C18.928 15.85 19.1912 15.7096 19.3841 15.5832L19.6614 15.4055C19.3652 16.163 18.9987 16.8317 18.5518 17.4164C18.1053 18.0009 17.6538 18.4684 17.1883 18.8145C16.7228 19.1605 16.2245 19.4458 15.6793 19.6654C15.1385 19.8853 14.6448 20.0349 14.1936 20.119C13.742 20.1986 13.2862 20.2406 12.83 20.2406H12.7876H12.7314C11.5934 20.2406 10.5216 20.0536 9.51066 19.6796C8.49971 19.3055 7.59701 18.7583 6.80246 18.0428C6.00795 17.3226 5.3825 16.3968 4.92195 15.2606C4.46117 14.1244 4.23541 12.8479 4.23541 11.431C4.23541 9.52312 4.5927 7.90055 5.31676 6.56788C6.03617 5.23522 7.02356 4.24858 8.28355 3.60801C9.54353 2.97203 11.0246 2.64017 12.7314 2.62137V2.60748C12.7407 2.60748 12.75 2.61211 12.7594 2.61674C12.7689 2.62137 12.7783 2.62137 12.7876 2.62137C12.7972 2.62137 12.8018 2.62137 12.8018 2.62137L12.83 2.60748V2.62137C14.0761 2.63063 15.2185 2.86442 16.2527 3.31347C17.2872 3.76711 18.1146 4.38429 18.7447 5.16983C19.3746 5.95538 19.8025 6.88585 20.0329 7.95204C20.2633 9.02285 20.1976 10.1825 19.84 11.431C19.5299 12.5625 18.834 13.4792 17.762 14.1805C16.6853 14.8773 15.51 15.1203 14.2357 14.9099L14.2357 14.9099ZM45.5299 18.1831C45.5299 18.2112 45.5299 18.258 45.5299 18.3235C45.5299 18.515 45.5299 18.6553 45.5345 18.7395C45.5392 18.8283 45.5628 18.9267 45.6003 19.0436C45.6331 19.1559 45.6943 19.2351 45.7789 19.282C45.8589 19.3288 45.9765 19.352 46.1222 19.352V20.2406H39.7703V19.352C39.9632 19.352 40.1042 19.2959 40.1936 19.1932C40.2782 19.0856 40.3297 18.978 40.344 18.8706C40.3579 18.763 40.3626 18.5807 40.3626 18.3235C40.3626 18.2581 40.3626 18.2112 40.3626 18.1832V10.7997C40.3626 9.51391 40.0761 8.86866 39.4977 8.86866C39.2202 8.86866 38.8723 9.1632 38.4493 9.74769C38.026 10.3321 37.6359 11.0662 37.2737 11.9547C36.9071 12.8386 36.6721 13.6661 36.5638 14.4331V21.1291C36.5638 21.4141 36.6063 21.6528 36.6956 21.849C36.7803 22.0455 36.8882 22.1812 37.0104 22.2561C37.1328 22.3261 37.2597 22.3822 37.3819 22.4196C37.5041 22.4569 37.6123 22.4711 37.7062 22.4618L37.8287 22.4476C37.3819 23.0602 36.86 23.4996 36.2723 23.7664C35.6846 24.0375 35.111 24.1217 34.5516 24.0141C33.9921 23.9114 33.4702 23.6776 32.9905 23.3174C32.5064 22.9574 32.1159 22.4384 31.8245 21.7697C31.5283 21.0964 31.3826 20.3482 31.3826 19.5297V10.7997C31.3826 9.51391 31.1007 8.86866 30.5316 8.86866C30.2544 8.86866 29.9111 9.14903 29.5021 9.71037C29.093 10.276 28.7076 10.9823 28.3453 11.8378C27.9834 12.6888 27.7388 13.5026 27.6073 14.2694V18.1832C27.6073 18.2113 27.6073 18.2581 27.6073 18.3235C27.6073 18.5151 27.6119 18.6554 27.6166 18.7396C27.6212 18.8284 27.6401 18.9268 27.6777 19.0437C27.7152 19.1559 27.7765 19.2352 27.8563 19.2821C27.941 19.3289 28.0538 19.3521 28.1996 19.3521V20.2407H21.8523V19.3521C22.0452 19.3521 22.1863 19.296 22.271 19.1933C22.3603 19.0857 22.4071 18.978 22.4214 18.8707C22.4353 18.7631 22.4449 18.5808 22.4449 18.3236C22.4449 18.2582 22.4449 18.2113 22.4449 18.1832V8.85459C22.4449 8.83116 22.4449 8.78458 22.4449 8.71892C22.4449 8.47124 22.4353 8.28894 22.4214 8.17203C22.4071 8.05515 22.3603 7.94287 22.271 7.83526C22.1863 7.73228 22.0452 7.67616 21.8523 7.67616V6.80181H27.6073V11.2815C27.8752 10.6783 28.1761 10.1265 28.5054 9.62165C28.8344 9.12111 29.2245 8.64891 29.6665 8.21402C30.1133 7.77451 30.6256 7.42848 31.204 7.18052C31.7823 6.92822 32.4029 6.80181 33.0659 6.80181C34.0296 6.80181 34.8524 7.13857 35.5343 7.81651C36.2206 8.49004 36.5639 9.30832 36.5639 10.2668V11.3377C36.8178 10.7344 37.114 10.178 37.4526 9.6636C37.7863 9.1538 38.1764 8.67697 38.6232 8.23287C39.0652 7.78844 39.5824 7.44242 40.1701 7.18548C40.7577 6.92826 41.3829 6.80185 42.0459 6.80185C43.0097 6.80185 43.8328 7.13862 44.5097 7.81655C45.1914 8.49009 45.53 9.30836 45.53 10.2669V18.1833L45.5299 18.1831Z" fill="#7034CB"/>
</svg>
